<svg width="210" height="20" viewBox="0 0 210 20" fill="none" xmlns="http://www.w3.org/2000/svg">
<path fill-rule="evenodd" clip-rule="evenodd" d="M0 9.99992C0 4.47712 4.47712 0 9.99992 0H48.1287C52.6088 0 56.4008 2.94618 57.673 7.00678C57.8795 7.66606 58.4614 8.16325 59.1523 8.16325C59.8432 8.16325 60.4252 7.66608 60.6317 7.0068C61.9039 2.94627 65.6959 0.00016285 70.1759 0.00016285H200C205.523 0.00016285 210 4.47728 210 10.0001C210 15.5229 205.523 20 200.001 20H70.1759C65.6958 20 61.9038 17.0538 60.6316 12.9932C60.4251 12.3339 59.8432 11.8367 59.1523 11.8367C58.4614 11.8367 57.8795 12.3339 57.6729 12.9931C56.4008 17.0537 52.6088 19.9998 48.1287 19.9998H9.99991C4.4771 19.9998 0 15.5227 0 9.99992ZM119.503 14.5347C118.8 14.5347 118.25 14.4362 117.855 14.2366C117.458 14.0384 117.182 13.7416 117.024 13.3438C116.865 12.9472 116.786 12.4571 116.786 11.8708V8.55427C116.786 7.60228 116.999 6.90029 117.425 6.44954C117.85 5.9988 118.543 5.77219 119.504 5.77219H123.971C124.654 5.77219 125.176 5.80914 125.538 5.88426C125.898 5.95815 126.08 6.03574 126.08 6.11456L125.783 7.34858C125.615 7.31902 125.118 7.287 124.291 7.25128C123.465 7.2168 122.266 7.19956 120.692 7.19956H119.935C119.143 7.19956 118.748 7.55178 118.748 8.25623V12.0494C118.748 12.3869 118.834 12.6467 119.007 12.8302C119.18 13.0137 119.49 13.1048 119.935 13.1048H120.544C122.187 13.1048 123.461 13.0876 124.367 13.0531C125.272 13.0186 125.834 12.9817 126.051 12.9411L126.66 13.9226C126.66 13.9719 126.579 14.047 126.416 14.1455C126.253 14.2453 125.953 14.3339 125.518 14.4128C125.082 14.4916 124.454 14.5322 123.633 14.5322H119.506L119.503 14.5347ZM86.4003 14.5345V6.9789L86.2521 5.77444H92.8281C93.4617 5.77444 93.9583 5.85942 94.3202 6.02691C94.6808 6.19563 94.9489 6.41608 95.1218 6.68826C95.2947 6.96166 95.4059 7.25107 95.4553 7.55896C95.5047 7.86685 95.5294 8.15873 95.5294 8.43706V9.31516C95.5294 9.54299 95.4948 9.79916 95.4257 10.0812C95.3565 10.3632 95.228 10.6366 95.0403 10.8989C94.8525 11.1613 94.5796 11.3805 94.2238 11.5529C93.8681 11.7265 93.4025 11.8127 92.8281 11.8127H91.3138C90.69 11.8127 90.1083 11.798 89.5697 11.7684C89.03 11.7388 88.6273 11.7142 88.3605 11.6945V14.5357H86.4016L86.4003 14.5345ZM88.3593 10.3841H92.397C92.8429 10.3841 93.1492 10.2745 93.3172 10.0565C93.4852 9.83856 93.5692 9.57624 93.5692 9.26836V8.33115C93.5692 8.0134 93.4852 7.74616 93.3172 7.52817C93.1492 7.31019 92.8466 7.20058 92.4118 7.20058H88.3593V10.3841ZM72.238 14.5346C71.5648 14.5346 71.0707 14.5051 70.7533 14.446C70.4371 14.3869 70.2778 14.3167 70.2778 14.2378L70.8719 12.9435C71.0992 12.9829 71.6661 13.0198 72.5715 13.0556C73.4768 13.09 74.7219 13.1073 76.3054 13.1073H76.587C77.0119 13.1073 77.3145 13.0309 77.4924 12.877C77.6702 12.723 77.7591 12.4632 77.7591 12.0962V11.7981C77.7591 11.4508 77.6875 11.2033 77.5442 11.0543C77.4009 10.9053 77.081 10.8314 76.587 10.8314H73.1433C72.1441 10.8314 71.4166 10.6454 70.9608 10.2735C70.505 9.90155 70.2778 9.2944 70.2778 8.45078V8.21309C70.2778 7.77713 70.3593 7.37564 70.5223 7.00864C70.6854 6.64163 70.9645 6.34729 71.361 6.12315C71.7563 5.90024 72.301 5.78817 72.9939 5.78817H77.0316C77.7048 5.78817 78.2483 5.82265 78.6645 5.89285C79.0808 5.96182 79.2883 6.03694 79.2883 6.11576L78.9918 7.36579C78.7349 7.33623 78.1507 7.30421 77.2404 7.2685C76.3301 7.23401 75.1073 7.21677 73.5732 7.21677L73.4101 7.20199C72.9544 7.20199 72.648 7.29436 72.49 7.47663C72.3318 7.66013 72.2466 7.89043 72.238 8.16876V8.42123C72.238 8.74882 72.3294 8.9939 72.5122 9.15769C72.695 9.32149 73.0001 9.40277 73.425 9.40277H76.7204C77.354 9.40277 77.8938 9.46681 78.3384 9.59613C78.7843 9.72544 79.1252 9.96067 79.3624 10.303C79.5995 10.6454 79.7181 11.1491 79.7181 11.8129V12.0506C79.7181 12.7945 79.5279 13.3942 79.1462 13.8499C78.7646 14.3056 78.105 14.5346 77.165 14.5346H72.238ZM104.331 5.78822L99.9822 14.5347H102.149L103.113 12.6455H108.428L109.304 14.5347H111.59L107.256 5.78822H104.331ZM107.88 11.1886H103.651L105.699 7.12814H105.847L107.88 11.1886ZM132.595 5.78822V14.5347H140.701C141.354 14.5347 141.815 14.5175 142.082 14.483C142.348 14.4473 142.482 14.4103 142.482 14.3709L141.888 13.1061H134.554V10.7415H140.107V9.26858H134.554V7.21558H141.828V5.78822H132.595ZM151.403 14.5345L151.388 7.20184H147.528V5.77448H157.237V7.20184H153.362V14.5345H151.403ZM163.174 5.78822V14.5347H165.133V5.78822H163.174ZM172.11 14.5348V6.97921L171.962 5.78953H174.219L177.574 11.7392L181.047 5.78953H183.05V14.536H181.091V8.98787H180.928L180.349 10.2822L178.479 13.6444H176.683L174.813 10.2822L174.219 8.98787H174.071V14.536H172.112L172.11 14.5348ZM189.88 5.78822V14.5347H197.985C198.638 14.5347 199.099 14.5175 199.366 14.483C199.633 14.4473 199.766 14.4103 199.766 14.3709L199.172 13.1061H191.839V10.7415H197.391V9.26858H191.839V7.21558H199.112V5.78822H189.88ZM13.0916 7.6498V9.76483V9.76596L10.2633 10.9046L13.0916 12.049V14.1663L7.57389 11.9934H7.5625V9.82386H7.57389L13.0916 7.6498ZM45.2369 14.0539V11.94L48.0629 10.8025L45.2369 9.66493V7.5499L50.7466 9.72169H50.7603V11.8935H50.7466L45.2369 14.0539ZM42.8708 4.56072L39.6304 15.5763H41.5546L44.7951 4.56072H42.8708ZM22.0012 9.5889C22.0354 8.72722 21.7473 7.88711 21.1996 7.25022H21.2008C20.9298 6.94937 20.6007 6.71323 20.2364 6.5577C19.872 6.40217 19.4815 6.33178 19.0887 6.34881C18.6674 6.32951 18.2472 6.40217 17.8533 6.56111C17.4593 6.72005 17.0995 6.96299 16.7978 7.27406V6.57814H14.8735V14.281H16.7978V10.8695C16.7978 9.09959 17.4001 8.21521 18.6047 8.21521C18.8063 8.20613 19.0078 8.24586 19.1934 8.33101C19.3779 8.41615 19.543 8.54557 19.675 8.70792C19.9563 9.07915 20.0997 9.54576 20.077 10.0203V14.281H22.0012V9.5889ZM24.4506 3.37449V14.3901H26.3749V3.37449H24.4506ZM35.6416 13.9859H37.2459L39.9456 6.26945H37.8892L36.3737 10.8991L34.8127 6.26945H33.312L31.751 10.8844L30.2355 6.26945H28.1792L30.8766 13.9859H32.4797L34.0681 9.44823L35.6416 13.9859Z" fill="url(#paint0_linear_206_329)"/>
<defs>
<linearGradient id="paint0_linear_206_329" x1="3.47954" y1="-6.6526" x2="236.326" y2="-6.6526" gradientUnits="userSpaceOnUse">
<stop offset="0.251308" stop-color="#996DFF"/>
<stop offset="0.623787" stop-color="#FF876E"/>
<stop offset="1" stop-color="#FFD072"/>
</linearGradient>
</defs>
</svg>
